# xmcd CD database file
#
# Track frame offsets:
#	182
#	13675
#	27612
#	40127
#	54150
#	67065
#	79732
#	92895
#	105960
#	118632
#	131695
#	145427
#	158987
#	171990
#	185775
#	199067
#	210667
#	224277
#	236905
#	249380
#
# Disc length: 3502 seconds
#
# Revision: 0
# Processed by: cddbd v1.5.2PL0 Copyright (c) Steve Scherf et al.
# Submitted via: CDex 1.99.1
#
DISCID=290dac14
DTITLE=Memphis Minnie - Complete Recorded Works 1935-1941 Vol. 3
DYEAR=1900
DGENRE=Blues
TTITLE0=Hot Stuff (take 1)
TTITLE1=Hot Stuff (take 2)
TTITLE2=Living The Best I Can
TTITLE3=You Can't Rule Me
TTITLE4=No Need You Doggin' Me
TTITLE5=Look What You Got (take 1)
TTITLE6=Look What You Got (take 2)
TTITLE7=My Baby Don't Want Me No More (take 1)
TTITLE8=My Baby Don't Want Me No More (take 2)
TTITLE9=Wants Cake When I'm Hungry
TTITLE10=Down In The Alley (take1)
TTITLE11=Down In The Alley (take 2)
TTITLE12=Blues Everywhere
TTITLE13=Keep On Sailing
TTITLE14=Please Don't Stop Him
TTITLE15=Walking And Crying Blues
TTITLE16=I'm Going Don't You Know
TTITLE17=Running And Dodging Blues
TTITLE18=New Caught Me Wrong Again
TTITLE19=Stop Lying On Me
EXTD=
EXTT0=
EXTT1=
EXTT2=
EXTT3=
EXTT4=
EXTT5=
EXTT6=
EXTT7=
EXTT8=
EXTT9=
EXTT10=
EXTT11=
EXTT12=
EXTT13=
EXTT14=
EXTT15=
EXTT16=
EXTT17=
EXTT18=
EXTT19=
PLAYORDER=
